<?xml version="1.0" encoding="UTF-8"?>
<svg id="Vrstva_1" xmlns="http://www.w3.org/2000/svg" version="1.1" viewBox="0 0 595.28 841.89">
  <!-- Generator: Adobe Illustrator 29.8.4, SVG Export Plug-In . SVG Version: 2.1.1 Build 6)  -->
  <defs>
    <style>
      .st0 {
        fill: #90b756;
      }

      .st1 {
        fill: none;
        stroke: #395737;
        stroke-miterlimit: 10;
      }

      .st2 {
        fill: #272e29;
      }

      .st3 {
        fill: #f1898b;
      }

      .st4 {
        fill: #fff;
      }

      .st5 {
        fill: #4c6c40;
      }

      .st6 {
        fill: #395737;
      }

      .st7 {
        fill: #935625;
      }

      .st8 {
        fill: #77421e;
      }

      .st9 {
        fill: #a1c650;
      }

      .st10 {
        fill: #8ea682;
      }
    </style>
  </defs>
  <g>
    <path class="st5" d="M457.58,409c-7.98,6.54.99,16.47-5.05,22.37-9.26,4.83-47.51,14.83-49.44,16.6-5.32,4.87,3.19,8.74,1.08,14.8-2.57,7.37-16.02-2.82-19.49-3.97.57-3.75-8.25-2.79-8.66-4.69,8.47-4.92,2.48-14.1,10.1-16.24,1.1.71,2.47.94,3.25,2.17,15.26-18.62,43.71-34.29,68.2-31.03Z"/>
    <path class="st6" d="M386.13,437.87c-7.63,2.14-1.63,11.32-10.1,16.24.41,1.9,9.23.95,8.66,4.69-12.06-3.98-19.21,1.93-30.31.36l1.08-2.53,14.43-5.77c-5.55-1.28-11.59-4.72-17.32-5.05-1.86-.11-28.87,5.06-16.6-4.33,9.77-7.47,25.49-1.87,35,2.89l2.17,1.08c-.44-.81-1.71-1.34-2.17-1.8-3.09-3.15-10.75-8.44-14.8-10.1-2.08-.86-24.57-4.85-14.43-7.94s29.87,8.46,37.53,15.16c-4.71-9.25-14.69-13.52-22.73-19.13,1.77-5.81,11.43,1.03,14.8,3.25,4.83,3.18,10.12,9.99,14.8,12.99Z"/>
    <path class="st10" d="M370.97,444.36v-.72c.45.46,1.72.99,2.17,1.8l-2.17-1.08Z"/>
    <path class="st6" d="M346.8,651.53c-24.91,7.3-51.55,12.64-75.93,3.72-47.33-17.31-75.2-50.74-72.49-106.3,5.78-118.62,188.11-114.65,180.98-16.86-4.83,66.29-108.68,63.52-101.95,5.52,4.26-36.67,52.86-22.57,39.02.75-11.43-17.28-24.64-6.28-25.36-1.67-2.2,14.15,14.77,27.99,42.74,18.83,44.51-14.58,25.84-82.83-37.72-74.46-69.98,9.21-74.9,92.17-15.97,119.8,17.52,8.21,37.43,9.45,56.16,4.61,64.37-16.66,121.31-80.8,91.72-160.72,11.48-3.97,22.84-8.87,31.76-17.32-2.74.14-4.73,2.67-7.22,3.97,6.04-5.9-2.93-15.84,5.05-22.37,2.07.28,5.08,1.64,6.86,2.89,2.68-.29-1.2-2.72-1.44-2.89-19.24-13.39-59.13,5.65-73.61,20.93l-55.21-36.45c8.73-21.03-6.29-45.29-22.01-58.82,8.88,12.47,26.99,38.89,18.4,54.49-2.1,3.82-21.89,20.02-26.34,22.73-8.83,5.38-32.11,10.6-35,19.85-1.03,3.28.72,16.08-4.33,10.83-4.92-5.11,2.51-16.84,6.86-20.57l-.72-1.44c-11.61,1.61-16.16,10.32-22.37,18.76-8.8-10.72,9.84-21.49,19.13-23.46-5.28-4.48-21.08,9.07-22.01,8.3-6.63-5.44,15.45-17.18,20.57-13.35-2.28-4.45-14.95-1.38-16.96-2.53,1.14-7.91,17.27-3.52,22.37-.72,1.31-3.5-19.28-9.84-7.22-10.1,7.42-.16,16.25,13.17,22.37,10.1.9-.45,6.33-8.76,8.66-10.83,6.92-6.13,15.09-10.45,22.73-15.52-16.19-13.01-23.47-34.06-22.73-54.49-4.22,20.28,3.08,41.66,18.04,55.57-12.52-.57-32.8-5.96-44.75-4.33-1.32.18-6.94,3.87-8.66,4.33-14,3.77-24.45,13.69-39.35,11.64,17.18-10.87,41.59-8.03,55.59-26.44,12.31-16.19,7-33.38,2.17-50.88-.83-3.02-3.47-5.54-3.61-9.74-.21-6.56,3.71-2.7-1.44-9.02l-8.3-11.55c24.8-1.28,48.84-9.47,73.61-10.83,85.35-4.67,154.62,52.78,172.49,134.96-7.34-71.74-72.71-134.95-145.06-139.29-34.12-2.05-59.38,8.09-90.94,11.55-2.6.28-9.54,1.26-11.55.72-2.7-.72-13.96-12.91-17.68-14.8,17.14-.54,35.25,5.71,51.6.36,22.39-7.33,37.48-8.54,67.84-10.1,2.88-.15,2.73,1.48,2.89,1.44.9-.21,1.11-2.08,1.44-2.17,6.88-1.7,10.9-6.88,12.27,2.89,2.37-3.45,5.9-6.04,10.1-6.5,3.77,17.14,4.51.5,15.88,1.44l1.44,11.55c20.09-16.7,10.96,4.37,13.71,6.5,2.57-2.96,11.51-8.38,15.16-6.5,2.61,1.35-1.29,11.37.72,13.71,10.4-9.34,19.55-10.69,14.07,6.86l1.44.72c23.46-13.83,9.57,6.56,11.55,10.1,14.41-5.32,16.8-3.52,10.83,10.83,1.3,2.15,24.84-10.44,10.1,12.27l13.35-.36c5.07,1.82-3.74,11-3.97,14.07,4.42-.03,10.7-1.69,13.71,2.89l-7.22,10.83c4.69,1.49,9.15,1.35,12.27,5.77l-7.22,7.22c25.79,3.32,2.92,11.87,3.61,12.99,3.93.49,8.02,1.23,10.83,4.33l-7.94,7.94c4.49,1.03,8.69,3.38,10.1,7.94l-5.77,4.33,7.22,6.5c-11.21,8.9-2.69,2.54,0,12.27-9.77,5.09-3.36,3.01-.72,10.1-12.11,3.19,7.98,9.77-5.77,11.55,2.8,4.44,6.7,6.47-.72,8.66l3.61,6.5c-8.53,1.94-.96,5.41-1.44,7.22-.35,1.32-3.04.76-3.61,2.17s0-.81-.54,1.33c4.63,4.68-11.8,138.85-170.14,185.27Z"/>
    <path class="st9" d="M437.73,338.27c16.6-4.07,11.49,23.26-2.17,14.43-5.24-3.38-3.27-13.1,2.17-14.43Z"/>
    <path class="st9" d="M422.58,318.06c10.52-2.46,11.68,12.1,4.33,13.71-10.23,2.25-11.82-11.96-4.33-13.71Z"/>
    <path class="st9" d="M400.2,297.86c10.09-1.37,10.67,12.61,2.89,13.71-9.61,1.36-11.11-12.59-2.89-13.71Z"/>
    <path class="st9" d="M468.77,351.98c9.95-2.27,10.68,11.44,4.33,12.99-9.93,2.43-11.82-11.28-4.33-12.99Z"/>
    <path class="st9" d="M328.75,292.08c7.87-1.34,6.92,11.79-.72,9.38-3.47-1.09-3.69-8.63.72-9.38Z"/>
    <path class="st9" d="M352.57,296.41c5.78-1.31,7.27,7.7,2.17,8.66-6.38,1.2-6.54-7.67-2.17-8.66Z"/>
    <path class="st9" d="M488.97,383.02c7.55-.97,5.22,12.49-2.17,7.94-3.17-1.95-.78-7.56,2.17-7.94Z"/>
    <path class="st0" d="M381.44,300.02c4.47-.32,5.31,7.02,1.44,7.94-5.28,1.26-6.34-7.59-1.44-7.94Z"/>
    <path class="st6" d="M174.21,331.41c-1.53.43-2.01-.71-3.58.59-4.03,3.37-11.07,32.56-7.48,38.66l-1.97,2.4-32.96,6.68c-6.96-3.64-2.01-19.39.46-25.92,5.07-13.39,16.96-24.3,21.71-35.79,2.17-5.24,1.12-16.02,8.39-18.72-.14,11.16,6.69,25.13,15.42,32.09Z"/>
    <path class="st4" d="M136.46,361.82c1.49-1.03,6.46-1.13,6.07,1.72-.52,3.82-8.59.02-6.07-1.72Z"/>
    <path class="st5" d="M261.39,286.12c6.62,4.75,1.83,2.05,3.75,8.33,1.23,4.02,4.43,5.76,6.03,8.46-2.5-.75-1.25.51-.67,1.68,7.89,15.9,15.44,40.84,2.92,56.56-8.73,10.96-25.06,11.75-36.96,17.84-17.94,9.18-50.22,48.72-72.26,41.1-3.26-1.13-6.14-4.13-6.19-7.67s26.4-23.12,31.07-27.48c10.68-9.97,33.16-41.15,46.1-42.39l9.93,2.17c-16.81-10.53-33.65,6.47-48.32,13.46-12.47,5.94-57,27.59-68.56,21.55l32.96-6.68,1.97-2.4c-3.59-6.11,3.44-35.29,7.48-38.66,1.57-1.31,2.05-.16,3.58-.59,2.04,1.62,6.94,3.04,9.2,4.99l9.75,1.47c-32.31-2.25-37.55-37.42-8.02-50.33,28.99-12.67,51.87-18.92,76.26-1.42Z"/>
    <path class="st4" d="M187.74,286.37c35.36-15.17,56.93,25.52,27.01,41.54-39.54,21.18-58.16-28.17-27.01-41.54Z"/>
    <path class="st9" d="M188.82,285.83c35.96-15.1,51.99,37.55,11.06,42.37-24.88,2.93-35.41-32.15-11.06-42.37Z"/>
    <path class="st2" d="M204.09,292.66c6.77,4.93,2.74,13.94-3.51,17.4-6.82-1.2-7.13-16.87,3.51-17.4Z"/>
    <path class="st4" d="M200.58,310.06c6.26-3.46,10.29-12.47,3.51-17.4,10.02-.5,7.7,19.38-3.51,17.4Z"/>
    <path class="st3" d="M194.56,369.49c.12-.01,1.65.73,1.02,1.25-9.89,7.75-20.68,14.53-30.57,22.26-21.97,17.17-52.78,48.49-82.88,33.05,2.93.39,17.56-1.24,18.21-2.91l-31.2-17.51c36.79,20.66,66.48,3.58,91.67-25.02-6.65,10.37-15.38,19.95-24.51,27.94,10.87-3.96,18.02-15.06,27.32-21.91,3.99-2.94,27.56-16.88,30.95-17.17Z"/>
    <path class="st6" d="M195.77,358.82c.88-.34,1.91-.35,2.81-.65l-12.38,7.31c-18.54,6.2-37.52,18.72-57.77,14.47,18.72.11,38.33-7.35,55.49-14.69,3.64-1.56,8.54-5.18,11.84-6.44Z"/>
    <path class="st7" d="M203.25,183.79c7.62-3.6,16.83-1.7,22.78,4.19,3.35,3.31,28.28,44.4,26.93,46.75-36.52,18.49-75.82,34.1-116.95,37.87-.5-15.72-13.85-61.77,8.86-66.55,11.72-2.47,20.36,3.32,36.98-3.91,9.89-4.3,15.45-15.54,21.39-18.35Z"/>
    <path class="st7" d="M310.56,232.47c2.66,6.5-10.62,18.87-15.12,22.85-38.87,34.38-122.25,60-173.8,59.33-9.45-.12-23.51-.37-31.04-7.03-.76-1.65-.73-2.97.47-4.38,2.36-2.77,41.4-19.97,43.71-19.32,2.02,3.45-.54,8.03,3.99,8.7,27.72,4.13,87.85-18.46,111.46-33.77,6.08-3.94,16.88-8.46,11.46-16.11,15.64-3.46,32.87-12.72,48.87-10.26Z"/>
    <path class="st8" d="M135.96,276.03l1.48,13.33s24.24,1.72,62.93-12.25c38.69-13.97,60.55-28.62,60.55-28.62l-7.27-12.12s-30.95,18.77-57.48,26.87-60.21,12.78-60.21,12.78Z"/>
  </g>
  <circle class="st1" cx="-1045.21" cy="451.08" r="252.95"/>
</svg>